<mxfile host="app.diagrams.net" modified="2023-07-05T16:02:59.724Z" agent="Mozilla/5.0 (X11; CrOS x86_64 14541.0.0) AppleWebKit/537.36 (KHTML, like Gecko) Chrome/115.0.0.0 Safari/537.36" etag="r2SqcvB2Z_VBVar2SCOr" version="21.5.2" type="google">
  <diagram name="ページ1" id="g4f9FX7pEA3UaHvOm9IJ">
    <mxGraphModel grid="1" page="1" gridSize="10" guides="1" tooltips="1" connect="1" arrows="1" fold="1" pageScale="1" pageWidth="1169" pageHeight="827" math="1" shadow="0">
      <root>
        <mxCell id="0" />
        <mxCell id="1" parent="0" />
        <mxCell id="0eYH9hdW6Woxicqcgsz0-3" value="データフローダイアグラム（DFD）" style="text;html=1;strokeColor=none;fillColor=none;align=left;verticalAlign=middle;whiteSpace=wrap;rounded=1;fontSize=18;" vertex="1" parent="1">
          <mxGeometry x="10" y="10" width="290" height="30" as="geometry" />
        </mxCell>
        <mxCell id="4nWX0mUVVbZoidXHL_q9-24" value="パラメータの更新" style="text;html=1;strokeColor=none;fillColor=none;align=left;verticalAlign=middle;whiteSpace=wrap;rounded=1;fontSize=15;" vertex="1" parent="1">
          <mxGeometry x="980" y="730" width="160" height="30" as="geometry" />
        </mxCell>
        <mxCell id="4nWX0mUVVbZoidXHL_q9-20" value="順伝播" style="text;html=1;strokeColor=none;fillColor=none;align=left;verticalAlign=middle;whiteSpace=wrap;rounded=1;fontSize=15;" vertex="1" parent="1">
          <mxGeometry x="980" y="610.18" width="80" height="30" as="geometry" />
        </mxCell>
        <mxCell id="4nWX0mUVVbZoidXHL_q9-22" value="逆伝播" style="text;html=1;strokeColor=none;fillColor=none;align=left;verticalAlign=middle;whiteSpace=wrap;rounded=1;fontSize=15;" vertex="1" parent="1">
          <mxGeometry x="980" y="670" width="80" height="30" as="geometry" />
        </mxCell>
        <mxCell id="eEuLR6X9z9Q5MnXIe958-50" value="" style="rounded=1;whiteSpace=wrap;html=1;fillColor=#f5f5f5;fontColor=#333333;strokeColor=#CCCCCC;" vertex="1" parent="1">
          <mxGeometry x="960" y="180" width="160" height="370" as="geometry" />
        </mxCell>
        <mxCell id="3gthb1otopaVk7GgHr_f-10" value="" style="endArrow=block;html=1;rounded=1;exitX=1;exitY=0.5;exitDx=0;exitDy=0;dashed=1;endFill=1;" edge="1" parent="1" source="3gthb1otopaVk7GgHr_f-3">
          <mxGeometry width="50" height="50" relative="1" as="geometry">
            <mxPoint x="830" y="310" as="sourcePoint" />
            <mxPoint x="1160" y="250" as="targetPoint" />
          </mxGeometry>
        </mxCell>
        <mxCell id="3gthb1otopaVk7GgHr_f-9" value="" style="endArrow=classic;html=1;rounded=1;exitX=1;exitY=0.5;exitDx=0;exitDy=0;jumpStyle=gap;" edge="1" parent="1" source="eEuLR6X9z9Q5MnXIe958-53">
          <mxGeometry width="50" height="50" relative="1" as="geometry">
            <mxPoint x="830" y="310" as="sourcePoint" />
            <mxPoint x="1160" y="355" as="targetPoint" />
          </mxGeometry>
        </mxCell>
        <mxCell id="3gthb1otopaVk7GgHr_f-12" value="" style="endArrow=block;html=1;rounded=1;entryX=1;entryY=0.5;entryDx=0;entryDy=0;dashed=1;jumpStyle=gap;endFill=1;" edge="1" parent="1" target="eEuLR6X9z9Q5MnXIe958-52">
          <mxGeometry width="50" height="50" relative="1" as="geometry">
            <mxPoint x="1160" y="480" as="sourcePoint" />
            <mxPoint x="850" y="420" as="targetPoint" />
          </mxGeometry>
        </mxCell>
        <mxCell id="eEuLR6X9z9Q5MnXIe958-52" value="正解値\((t)\)" style="shape=parallelogram;html=1;strokeWidth=1;perimeter=parallelogramPerimeter;whiteSpace=wrap;rounded=1;arcSize=12;size=0.23;fontSize=14;" vertex="1" parent="1">
          <mxGeometry x="980" y="450.39" width="100" height="60" as="geometry" />
        </mxCell>
        <mxCell id="eEuLR6X9z9Q5MnXIe958-53" value="予測値\((y)\)" style="shape=parallelogram;html=1;strokeWidth=1;perimeter=parallelogramPerimeter;whiteSpace=wrap;rounded=1;arcSize=12;size=0.23;fontSize=14;" vertex="1" parent="1">
          <mxGeometry x="980" y="325" width="100" height="60" as="geometry" />
        </mxCell>
        <mxCell id="3gthb1otopaVk7GgHr_f-8" value="" style="endArrow=blockThin;startArrow=none;html=1;rounded=1;entryX=0.5;entryY=1;entryDx=0;entryDy=0;exitDx=0;exitDy=0;startFill=0;endFill=0;" edge="1" parent="1" source="MCuzJTwg4RN5zkWUSIne-1" target="eEuLR6X9z9Q5MnXIe958-53">
          <mxGeometry width="50" height="50" relative="1" as="geometry">
            <mxPoint x="930" y="460" as="sourcePoint" />
            <mxPoint x="980" y="410" as="targetPoint" />
          </mxGeometry>
        </mxCell>
        <mxCell id="3gthb1otopaVk7GgHr_f-11" value="" style="endArrow=block;html=1;rounded=1;jumpStyle=gap;entryX=0.75;entryY=1;entryDx=0;entryDy=0;dashed=1;endFill=1;" edge="1" parent="1" target="3gthb1otopaVk7GgHr_f-3">
          <mxGeometry width="50" height="50" relative="1" as="geometry">
            <mxPoint x="1030" y="420" as="sourcePoint" />
            <mxPoint x="1150" y="280" as="targetPoint" />
            <Array as="points">
              <mxPoint x="1100" y="420" />
              <mxPoint x="1100" y="320" />
            </Array>
          </mxGeometry>
        </mxCell>
        <mxCell id="3gthb1otopaVk7GgHr_f-3" value="損失関数" style="shape=process;whiteSpace=wrap;html=1;backgroundOutline=1;fontSize=14;rounded=1;" vertex="1" parent="1">
          <mxGeometry x="980" y="220" width="120" height="60" as="geometry" />
        </mxCell>
        <mxCell id="eEuLR6X9z9Q5MnXIe958-47" value="出力層" style="text;html=1;strokeColor=none;fillColor=none;align=center;verticalAlign=middle;whiteSpace=wrap;rounded=1;fontSize=16;" vertex="1" parent="1">
          <mxGeometry x="540" y="70" width="380" height="30" as="geometry" />
        </mxCell>
        <mxCell id="eEuLR6X9z9Q5MnXIe958-1" value="" style="rounded=1;whiteSpace=wrap;html=1;fillColor=#f5f5f5;fontColor=#333333;strokeColor=#CCCCCC;" vertex="1" parent="1">
          <mxGeometry x="100" y="100" width="380" height="680" as="geometry" />
        </mxCell>
        <mxCell id="eEuLR6X9z9Q5MnXIe958-28" value="" style="rounded=1;whiteSpace=wrap;html=1;fillColor=#f5f5f5;fontColor=#333333;strokeColor=#CCCCCC;" vertex="1" parent="1">
          <mxGeometry x="540" y="100" width="380" height="680" as="geometry" />
        </mxCell>
        <mxCell id="eEuLR6X9z9Q5MnXIe958-18" value="順伝播" style="text;html=1;strokeColor=none;fillColor=none;align=center;verticalAlign=middle;whiteSpace=wrap;rounded=1;fontSize=16;" vertex="1" parent="1">
          <mxGeometry x="10" y="324.61" width="60" height="30" as="geometry" />
        </mxCell>
        <mxCell id="eEuLR6X9z9Q5MnXIe958-19" value="逆伝播" style="text;html=1;strokeColor=none;fillColor=none;align=center;verticalAlign=middle;whiteSpace=wrap;rounded=1;fontSize=16;" vertex="1" parent="1">
          <mxGeometry x="10" y="518.35" width="60" height="30" as="geometry" />
        </mxCell>
        <mxCell id="eEuLR6X9z9Q5MnXIe958-10" value="" style="endArrow=classic;html=1;rounded=1;entryX=0;entryY=0.5;entryDx=0;entryDy=0;" edge="1" parent="1" target="eEuLR6X9z9Q5MnXIe958-6">
          <mxGeometry width="50" height="50" relative="1" as="geometry">
            <mxPoint x="10" y="355" as="sourcePoint" />
            <mxPoint x="110" y="370" as="targetPoint" />
          </mxGeometry>
        </mxCell>
        <mxCell id="eEuLR6X9z9Q5MnXIe958-16" value="" style="endArrow=block;html=1;rounded=1;exitX=0;exitY=0.5;exitDx=0;exitDy=0;dashed=1;endFill=1;jumpStyle=arc;" edge="1" parent="1" source="eEuLR6X9z9Q5MnXIe958-8">
          <mxGeometry width="50" height="50" relative="1" as="geometry">
            <mxPoint x="260" y="590" as="sourcePoint" />
            <mxPoint x="10" y="590" as="targetPoint" />
          </mxGeometry>
        </mxCell>
        <mxCell id="eEuLR6X9z9Q5MnXIe958-30" value="パラメータ&lt;br style=&quot;border-color: var(--border-color);&quot;&gt;\((w,b)\)" style="ellipse;whiteSpace=wrap;html=1;aspect=fixed;fontSize=14;rounded=1;" vertex="1" parent="1">
          <mxGeometry x="690" y="315" width="80" height="80" as="geometry" />
        </mxCell>
        <mxCell id="eEuLR6X9z9Q5MnXIe958-32" value="入力値\((x)\)" style="shape=parallelogram;html=1;strokeWidth=1;perimeter=parallelogramPerimeter;whiteSpace=wrap;rounded=1;arcSize=12;size=0.23;fontSize=14;" vertex="1" parent="1">
          <mxGeometry x="560" y="324.61" width="100" height="60" as="geometry" />
        </mxCell>
        <mxCell id="eEuLR6X9z9Q5MnXIe958-33" value="出力値\((y)\)" style="shape=parallelogram;html=1;strokeWidth=1;perimeter=parallelogramPerimeter;whiteSpace=wrap;rounded=1;arcSize=12;size=0.23;fontSize=14;" vertex="1" parent="1">
          <mxGeometry x="800" y="325.39" width="100" height="60" as="geometry" />
        </mxCell>
        <mxCell id="eEuLR6X9z9Q5MnXIe958-36" value="" style="endArrow=classic;html=1;rounded=1;exitX=0;exitY=0;exitDx=0;exitDy=0;entryX=0.603;entryY=1.006;entryDx=0;entryDy=0;entryPerimeter=0;" edge="1" parent="1" target="4nWX0mUVVbZoidXHL_q9-9">
          <mxGeometry width="50" height="50" relative="1" as="geometry">
            <mxPoint x="699.9957287525378" y="326.71572875253787" as="sourcePoint" />
            <mxPoint x="632.2" y="201.38779999999997" as="targetPoint" />
            <Array as="points">
              <mxPoint x="632" y="280" />
            </Array>
          </mxGeometry>
        </mxCell>
        <mxCell id="eEuLR6X9z9Q5MnXIe958-41" value="勾配" style="shape=parallelogram;html=1;strokeWidth=1;perimeter=parallelogramPerimeter;whiteSpace=wrap;rounded=1;arcSize=12;size=0.23;fontSize=14;" vertex="1" parent="1">
          <mxGeometry x="600" y="560.69" width="100" height="60" as="geometry" />
        </mxCell>
        <mxCell id="eEuLR6X9z9Q5MnXIe958-51" value="導関数" style="shape=process;whiteSpace=wrap;html=1;backgroundOutline=1;fontSize=14;rounded=1;" vertex="1" parent="1">
          <mxGeometry x="780" y="503.3499999999999" width="120" height="60" as="geometry" />
        </mxCell>
        <mxCell id="eEuLR6X9z9Q5MnXIe958-55" value="誤差\((δ)\)" style="shape=parallelogram;html=1;strokeWidth=1;perimeter=parallelogramPerimeter;whiteSpace=wrap;rounded=1;arcSize=12;size=0.23;fontSize=14;" vertex="1" parent="1">
          <mxGeometry x="790" y="678.4399999999999" width="100" height="60" as="geometry" />
        </mxCell>
        <mxCell id="eEuLR6X9z9Q5MnXIe958-58" value="" style="endArrow=block;html=1;rounded=1;exitX=0.5;exitY=1;exitDx=0;exitDy=0;dashed=1;entryX=0.5;entryY=0;entryDx=0;entryDy=0;endFill=1;" edge="1" parent="1" source="eEuLR6X9z9Q5MnXIe958-51" target="eEuLR6X9z9Q5MnXIe958-55">
          <mxGeometry width="50" height="50" relative="1" as="geometry">
            <mxPoint x="1110" y="490" as="sourcePoint" />
            <mxPoint x="1110" y="530" as="targetPoint" />
            <Array as="points" />
          </mxGeometry>
        </mxCell>
        <mxCell id="eEuLR6X9z9Q5MnXIe958-31" value="活性化関数" style="shape=process;whiteSpace=wrap;html=1;backgroundOutline=1;fontSize=14;rounded=1;" vertex="1" parent="1">
          <mxGeometry x="780" y="140.39" width="120" height="60" as="geometry" />
        </mxCell>
        <mxCell id="eEuLR6X9z9Q5MnXIe958-3" value="パラメータ&lt;br&gt;\((w,b)\)" style="ellipse;whiteSpace=wrap;html=1;aspect=fixed;fontSize=14;rounded=1;verticalAlign=middle;" vertex="1" parent="1">
          <mxGeometry x="250" y="315.3861038961038" width="80" height="80" as="geometry" />
        </mxCell>
        <mxCell id="eEuLR6X9z9Q5MnXIe958-5" value="活性化関数" style="shape=process;whiteSpace=wrap;html=1;backgroundOutline=1;fontSize=14;rounded=1;" vertex="1" parent="1">
          <mxGeometry x="340" y="140" width="120" height="60.78" as="geometry" />
        </mxCell>
        <mxCell id="eEuLR6X9z9Q5MnXIe958-6" value="入力値\((x)\)" style="shape=parallelogram;html=1;strokeWidth=1;perimeter=parallelogramPerimeter;whiteSpace=wrap;rounded=1;arcSize=12;size=0.23;fontSize=14;" vertex="1" parent="1">
          <mxGeometry x="120" y="324.995974025974" width="100" height="60.77922077922077" as="geometry" />
        </mxCell>
        <mxCell id="eEuLR6X9z9Q5MnXIe958-7" value="出力値\((y)\)" style="shape=parallelogram;html=1;strokeWidth=1;perimeter=parallelogramPerimeter;whiteSpace=wrap;rounded=1;arcSize=12;size=0.23;fontSize=14;" vertex="1" parent="1">
          <mxGeometry x="370" y="324.605974025974" width="100" height="60.77922077922077" as="geometry" />
        </mxCell>
        <mxCell id="eEuLR6X9z9Q5MnXIe958-11" value="" style="endArrow=classic;html=1;rounded=1;entryX=0.579;entryY=1.002;entryDx=0;entryDy=0;exitX=0;exitY=0;exitDx=0;exitDy=0;entryPerimeter=0;" edge="1" parent="1" source="eEuLR6X9z9Q5MnXIe958-3" target="4nWX0mUVVbZoidXHL_q9-5">
          <mxGeometry width="50" height="50" relative="1" as="geometry">
            <mxPoint x="269.99572875253807" y="328.6218326486419" as="sourcePoint" />
            <mxPoint x="202.16" y="200.7805" as="targetPoint" />
            <Array as="points">
              <mxPoint x="189" y="280" />
            </Array>
          </mxGeometry>
        </mxCell>
        <mxCell id="eEuLR6X9z9Q5MnXIe958-34" value="" style="endArrow=classic;html=1;rounded=1;entryX=0;entryY=0.5;entryDx=0;entryDy=0;exitX=1;exitY=0.5;exitDx=0;exitDy=0;shape=link;endSize=6;strokeWidth=1;shadow=0;" edge="1" parent="1" source="eEuLR6X9z9Q5MnXIe958-7" target="eEuLR6X9z9Q5MnXIe958-32">
          <mxGeometry width="50" height="50" relative="1" as="geometry">
            <mxPoint x="500" y="380" as="sourcePoint" />
            <mxPoint x="550" y="370" as="targetPoint" />
          </mxGeometry>
        </mxCell>
        <mxCell id="eEuLR6X9z9Q5MnXIe958-12" value="" style="endArrow=classic;html=1;rounded=1;entryX=0.407;entryY=1.008;entryDx=0;entryDy=0;entryPerimeter=0;exitX=0.5;exitY=0;exitDx=0;exitDy=0;" edge="1" parent="1" source="eEuLR6X9z9Q5MnXIe958-6" target="4nWX0mUVVbZoidXHL_q9-5">
          <mxGeometry width="50" height="50" relative="1" as="geometry">
            <mxPoint x="170" y="320" as="sourcePoint" />
            <mxPoint x="168.0343579741043" y="200.39" as="targetPoint" />
          </mxGeometry>
        </mxCell>
        <mxCell id="eEuLR6X9z9Q5MnXIe958-4" value="導関数" style="shape=process;whiteSpace=wrap;html=1;backgroundOutline=1;fontSize=14;rounded=1;" vertex="1" parent="1">
          <mxGeometry x="340" y="443.00454545454534" width="120" height="60.77922077922077" as="geometry" />
        </mxCell>
        <mxCell id="eEuLR6X9z9Q5MnXIe958-8" value="勾配" style="shape=parallelogram;html=1;strokeWidth=1;perimeter=parallelogramPerimeter;whiteSpace=wrap;rounded=1;arcSize=12;size=0.23;fontSize=14;" vertex="1" parent="1">
          <mxGeometry x="160" y="560.3016883116884" width="100" height="60.77922077922077" as="geometry" />
        </mxCell>
        <mxCell id="eEuLR6X9z9Q5MnXIe958-20" value="" style="endArrow=block;html=1;rounded=1;exitX=0.5;exitY=1;exitDx=0;exitDy=0;dashed=1;entryX=0.5;entryY=0;entryDx=0;entryDy=0;endFill=1;" edge="1" parent="1" source="eEuLR6X9z9Q5MnXIe958-4" target="2RPihsojUtUG2VIKDXIk-1">
          <mxGeometry width="50" height="50" relative="1" as="geometry">
            <mxPoint x="200" y="627.5324675324674" as="sourcePoint" />
            <mxPoint x="250" y="576.8831168831168" as="targetPoint" />
          </mxGeometry>
        </mxCell>
        <mxCell id="2RPihsojUtUG2VIKDXIk-1" value="誤差の計算" style="shape=process;whiteSpace=wrap;html=1;backgroundOutline=1;fontSize=14;rounded=1;" vertex="1" parent="1">
          <mxGeometry x="340" y="559.9131168831168" width="120" height="60.77922077922077" as="geometry" />
        </mxCell>
        <mxCell id="eEuLR6X9z9Q5MnXIe958-42" value="" style="endArrow=block;html=1;rounded=1;exitX=0;exitY=0.5;exitDx=0;exitDy=0;dashed=1;entryX=1;entryY=0.5;entryDx=0;entryDy=0;endFill=1;jumpStyle=arc;" edge="1" parent="1" source="eEuLR6X9z9Q5MnXIe958-41" target="2RPihsojUtUG2VIKDXIk-1">
          <mxGeometry width="50" height="50" relative="1" as="geometry">
            <mxPoint x="700" y="590" as="sourcePoint" />
            <mxPoint x="500" y="580" as="targetPoint" />
          </mxGeometry>
        </mxCell>
        <mxCell id="2RPihsojUtUG2VIKDXIk-4" value="誤差\((δ)\)" style="shape=parallelogram;html=1;strokeWidth=1;perimeter=parallelogramPerimeter;whiteSpace=wrap;rounded=1;arcSize=12;size=0.23;fontSize=14;" vertex="1" parent="1">
          <mxGeometry x="350" y="678.4416883116883" width="100" height="60.77922077922077" as="geometry" />
        </mxCell>
        <mxCell id="2RPihsojUtUG2VIKDXIk-5" value="" style="endArrow=block;html=1;rounded=1;exitX=0.5;exitY=1;exitDx=0;exitDy=0;dashed=1;entryX=0.5;entryY=0;entryDx=0;entryDy=0;endFill=1;" edge="1" parent="1" source="2RPihsojUtUG2VIKDXIk-1" target="2RPihsojUtUG2VIKDXIk-4">
          <mxGeometry width="50" height="50" relative="1" as="geometry">
            <mxPoint x="414.5" y="647.7922077922077" as="sourcePoint" />
            <mxPoint x="415" y="698.4415584415584" as="targetPoint" />
          </mxGeometry>
        </mxCell>
        <mxCell id="_HcKR7At95qcA3nOOknd-1" value="" style="edgeStyle=orthogonalEdgeStyle;rounded=1;orthogonalLoop=1;jettySize=auto;html=1;dashed=1;endArrow=block;endFill=1;" edge="1" parent="1" source="dP1Jb_RyL8s1y4VoYTHb-9" target="eEuLR6X9z9Q5MnXIe958-8">
          <mxGeometry relative="1" as="geometry" />
        </mxCell>
        <mxCell id="dP1Jb_RyL8s1y4VoYTHb-9" value="勾配の計算" style="shape=process;whiteSpace=wrap;html=1;backgroundOutline=1;fillColor=default;fontSize=14;rounded=1;" vertex="1" parent="1">
          <mxGeometry x="150" y="678.08" width="120" height="61.14" as="geometry" />
        </mxCell>
        <mxCell id="2RPihsojUtUG2VIKDXIk-6" value="" style="endArrow=block;html=1;rounded=1;entryX=0;entryY=0.5;entryDx=0;entryDy=0;dashed=1;exitX=0.25;exitY=1;exitDx=0;exitDy=0;endFill=1;jumpStyle=arc;" edge="1" parent="1" source="eEuLR6X9z9Q5MnXIe958-6" target="dP1Jb_RyL8s1y4VoYTHb-9">
          <mxGeometry width="50" height="50" relative="1" as="geometry">
            <mxPoint x="195" y="414.8051948051948" as="sourcePoint" />
            <mxPoint x="150" y="589.6100000000001" as="targetPoint" />
            <Array as="points">
              <mxPoint x="120" y="420" />
              <mxPoint x="120" y="710" />
            </Array>
          </mxGeometry>
        </mxCell>
        <mxCell id="eEuLR6X9z9Q5MnXIe958-22" value="" style="endArrow=block;html=1;rounded=1;entryX=0;entryY=1;entryDx=0;entryDy=0;exitX=0.5;exitY=0;exitDx=0;exitDy=0;dashed=1;endFill=0;dashPattern=1 1;strokeWidth=2;" edge="1" parent="1" source="_HcKR7At95qcA3nOOknd-3" target="eEuLR6X9z9Q5MnXIe958-3">
          <mxGeometry width="50" height="50" relative="1" as="geometry">
            <mxPoint x="210" y="440" as="sourcePoint" />
            <mxPoint x="470" y="576.8831168831168" as="targetPoint" />
            <Array as="points">
              <mxPoint x="210" y="420" />
            </Array>
          </mxGeometry>
        </mxCell>
        <mxCell id="eEuLR6X9z9Q5MnXIe958-38" value="" style="endArrow=block;html=1;rounded=1;entryX=0;entryY=0.5;entryDx=0;entryDy=0;dashed=1;exitX=0.25;exitY=1;exitDx=0;exitDy=0;endFill=1;jumpStyle=arc;" edge="1" parent="1" source="eEuLR6X9z9Q5MnXIe958-32" target="_HcKR7At95qcA3nOOknd-2">
          <mxGeometry width="50" height="50" relative="1" as="geometry">
            <mxPoint x="670" y="400" as="sourcePoint" />
            <mxPoint x="625" y="462.72" as="targetPoint" />
            <Array as="points">
              <mxPoint x="560" y="420" />
              <mxPoint x="560" y="710" />
            </Array>
          </mxGeometry>
        </mxCell>
        <mxCell id="eEuLR6X9z9Q5MnXIe958-39" value="" style="endArrow=block;html=1;rounded=1;entryX=0;entryY=1;entryDx=0;entryDy=0;exitX=0.5;exitY=0;exitDx=0;exitDy=0;dashed=1;dashPattern=1 1;endFill=0;strokeWidth=2;" edge="1" parent="1" source="_HcKR7At95qcA3nOOknd-4" target="eEuLR6X9z9Q5MnXIe958-30">
          <mxGeometry width="50" height="50" relative="1" as="geometry">
            <mxPoint x="675" y="462.72" as="sourcePoint" />
            <mxPoint x="910" y="570" as="targetPoint" />
            <Array as="points">
              <mxPoint x="650" y="420" />
            </Array>
          </mxGeometry>
        </mxCell>
        <mxCell id="eEuLR6X9z9Q5MnXIe958-56" value="" style="endArrow=block;html=1;rounded=1;dashed=1;entryX=1;entryY=0.5;entryDx=0;entryDy=0;jumpStyle=line;endFill=1;exitX=0;exitY=0.5;exitDx=0;exitDy=0;" edge="1" parent="1" source="eEuLR6X9z9Q5MnXIe958-55" target="_HcKR7At95qcA3nOOknd-2">
          <mxGeometry width="50" height="50" relative="1" as="geometry">
            <mxPoint x="810" y="720" as="sourcePoint" />
            <mxPoint x="720" y="490" as="targetPoint" />
          </mxGeometry>
        </mxCell>
        <mxCell id="eEuLR6X9z9Q5MnXIe958-44" value="" style="endArrow=block;html=1;rounded=1;dashed=1;entryX=1;entryY=0.25;entryDx=0;entryDy=0;jumpStyle=line;endFill=1;exitX=0.5;exitY=1;exitDx=0;exitDy=0;" edge="1" parent="1" source="eEuLR6X9z9Q5MnXIe958-30" target="_HcKR7At95qcA3nOOknd-2">
          <mxGeometry width="50" height="50" relative="1" as="geometry">
            <mxPoint x="740" y="390" as="sourcePoint" />
            <mxPoint x="700" y="568.5" as="targetPoint" />
            <Array as="points">
              <mxPoint x="750" y="450" />
              <mxPoint x="750" y="695" />
            </Array>
          </mxGeometry>
        </mxCell>
        <mxCell id="xw2P5y5SEt-4vjE8RQX3-11" value="" style="endArrow=block;html=1;rounded=1;dashed=1;entryX=1;entryY=0.25;entryDx=0;entryDy=0;exitX=0.5;exitY=1;exitDx=0;exitDy=0;jumpStyle=line;endFill=1;" edge="1" parent="1" source="eEuLR6X9z9Q5MnXIe958-3" target="dP1Jb_RyL8s1y4VoYTHb-9">
          <mxGeometry width="50" height="50" relative="1" as="geometry">
            <mxPoint x="320" y="424.9350649350649" as="sourcePoint" />
            <mxPoint x="270" y="574.6100000000001" as="targetPoint" />
            <Array as="points">
              <mxPoint x="310" y="450" />
              <mxPoint x="310" y="693" />
            </Array>
          </mxGeometry>
        </mxCell>
        <mxCell id="xw2P5y5SEt-4vjE8RQX3-9" value="" style="endArrow=block;html=1;rounded=1;exitX=0;exitY=0.5;exitDx=0;exitDy=0;dashed=1;entryX=1;entryY=0.5;entryDx=0;entryDy=0;jumpStyle=line;endFill=1;" edge="1" parent="1" source="2RPihsojUtUG2VIKDXIk-4" target="dP1Jb_RyL8s1y4VoYTHb-9">
          <mxGeometry width="50" height="50" relative="1" as="geometry">
            <mxPoint x="382" y="718.7012987012986" as="sourcePoint" />
            <mxPoint x="269.28" y="597.47" as="targetPoint" />
          </mxGeometry>
        </mxCell>
        <mxCell id="xw2P5y5SEt-4vjE8RQX3-10" value="" style="endArrow=block;html=1;rounded=1;entryX=0.5;entryY=1;entryDx=0;entryDy=0;dashed=1;startArrow=none;startFill=0;exitX=0.5;exitY=0;exitDx=0;exitDy=0;endFill=0;dashPattern=1 1;strokeWidth=2;" edge="1" parent="1" source="eEuLR6X9z9Q5MnXIe958-8" target="_HcKR7At95qcA3nOOknd-3">
          <mxGeometry width="50" height="50" relative="1" as="geometry">
            <mxPoint x="210" y="559.6100000000001" as="sourcePoint" />
            <mxPoint x="210" y="500" as="targetPoint" />
          </mxGeometry>
        </mxCell>
        <mxCell id="xw2P5y5SEt-4vjE8RQX3-3" value="" style="endArrow=block;html=1;rounded=1;exitX=0.5;exitY=0;exitDx=0;exitDy=0;dashed=1;entryX=0.5;entryY=1;entryDx=0;entryDy=0;endFill=1;" edge="1" parent="1" source="_HcKR7At95qcA3nOOknd-2" target="eEuLR6X9z9Q5MnXIe958-41">
          <mxGeometry width="50" height="50" relative="1" as="geometry">
            <mxPoint x="650" y="613.5" as="sourcePoint" />
            <mxPoint x="669.5" y="680" as="targetPoint" />
          </mxGeometry>
        </mxCell>
        <mxCell id="_HcKR7At95qcA3nOOknd-2" value="勾配の計算" style="shape=process;whiteSpace=wrap;html=1;backgroundOutline=1;fillColor=default;fontSize=14;rounded=1;" vertex="1" parent="1">
          <mxGeometry x="590" y="679.82" width="120" height="60.18" as="geometry" />
        </mxCell>
        <mxCell id="_HcKR7At95qcA3nOOknd-3" value="パラメータ&lt;br style=&quot;border-color: var(--border-color);&quot;&gt;の更新" style="shape=process;whiteSpace=wrap;html=1;backgroundOutline=1;fillColor=default;fontSize=14;rounded=1;" vertex="1" parent="1">
          <mxGeometry x="150" y="442.21" width="120" height="61.14" as="geometry" />
        </mxCell>
        <mxCell id="_HcKR7At95qcA3nOOknd-4" value="パラメータ&lt;br style=&quot;border-color: var(--border-color);&quot;&gt;の更新" style="shape=process;whiteSpace=wrap;html=1;backgroundOutline=1;fillColor=default;fontSize=14;rounded=1;" vertex="1" parent="1">
          <mxGeometry x="590" y="442.21" width="120" height="61.14" as="geometry" />
        </mxCell>
        <mxCell id="_HcKR7At95qcA3nOOknd-5" value="" style="endArrow=block;html=1;rounded=1;entryX=0.5;entryY=1;entryDx=0;entryDy=0;dashed=1;startArrow=none;startFill=0;exitX=0.5;exitY=0;exitDx=0;exitDy=0;endFill=0;dashPattern=1 1;strokeWidth=2;" edge="1" parent="1" source="eEuLR6X9z9Q5MnXIe958-41" target="_HcKR7At95qcA3nOOknd-4">
          <mxGeometry width="50" height="50" relative="1" as="geometry">
            <mxPoint x="649.5" y="559.52" as="sourcePoint" />
            <mxPoint x="649.5" y="504.52" as="targetPoint" />
          </mxGeometry>
        </mxCell>
        <mxCell id="eEuLR6X9z9Q5MnXIe958-46" value="中間層" style="text;html=1;strokeColor=none;fillColor=none;align=center;verticalAlign=middle;whiteSpace=wrap;rounded=1;fontSize=16;" vertex="1" parent="1">
          <mxGeometry x="100" y="70" width="380" height="30" as="geometry" />
        </mxCell>
        <mxCell id="zTWXOSka0hWHyqWH2p46-1" value="入力の勾配" style="text;html=1;strokeColor=#CCCCCC;fillColor=default;align=center;verticalAlign=middle;whiteSpace=wrap;rounded=1;fontSize=14;shadow=0;labelBorderColor=none;spacing=0;spacingTop=0;labelBackgroundColor=none;" vertex="1" parent="1">
          <mxGeometry x="470" y="559.91" width="80" height="20" as="geometry" />
        </mxCell>
        <mxCell id="zTWXOSka0hWHyqWH2p46-2" value="入力の勾配" style="text;html=1;strokeColor=#CCCCCC;fillColor=default;align=center;verticalAlign=middle;whiteSpace=wrap;rounded=1;fontSize=14;shadow=0;labelBorderColor=none;spacing=0;spacingTop=0;labelBackgroundColor=none;" vertex="1" parent="1">
          <mxGeometry x="30" y="559.9100000000001" width="82" height="20" as="geometry" />
        </mxCell>
        <mxCell id="zTWXOSka0hWHyqWH2p46-4" value="微分係数" style="text;html=1;strokeColor=#CCCCCC;fillColor=default;align=center;verticalAlign=middle;whiteSpace=wrap;rounded=1;fontSize=14;shadow=0;labelBorderColor=none;spacing=0;spacingTop=0;labelBackgroundColor=none;" vertex="1" parent="1">
          <mxGeometry x="406" y="519" width="69" height="20" as="geometry" />
        </mxCell>
        <mxCell id="eEuLR6X9z9Q5MnXIe958-57" value="" style="endArrow=block;html=1;rounded=1;dashed=1;entryX=0.5;entryY=0;entryDx=0;entryDy=0;jumpStyle=gap;endFill=1;" edge="1" parent="1" target="eEuLR6X9z9Q5MnXIe958-51">
          <mxGeometry width="50" height="50" relative="1" as="geometry">
            <mxPoint x="1030" y="420" as="sourcePoint" />
            <mxPoint x="850" y="660" as="targetPoint" />
            <Array as="points">
              <mxPoint x="840" y="420" />
            </Array>
          </mxGeometry>
        </mxCell>
        <mxCell id="eEuLR6X9z9Q5MnXIe958-49" value="" style="endArrow=classic;html=1;rounded=1;entryX=0;entryY=0.5;entryDx=0;entryDy=0;exitX=1;exitY=0.5;exitDx=0;exitDy=0;shape=link;" edge="1" parent="1" source="eEuLR6X9z9Q5MnXIe958-33" target="eEuLR6X9z9Q5MnXIe958-53">
          <mxGeometry width="50" height="50" relative="1" as="geometry">
            <mxPoint x="900" y="379.5" as="sourcePoint" />
            <mxPoint x="983" y="379.5" as="targetPoint" />
          </mxGeometry>
        </mxCell>
        <mxCell id="4nWX0mUVVbZoidXHL_q9-3" value="\(y-t\)" style="text;html=1;strokeColor=#CCCCCC;fillColor=default;align=center;verticalAlign=middle;whiteSpace=wrap;rounded=1;fontSize=14;shadow=0;labelBorderColor=none;spacing=0;spacingTop=0;labelBackgroundColor=none;" vertex="1" parent="1">
          <mxGeometry x="850" y="580.69" width="60" height="20" as="geometry" />
        </mxCell>
        <mxCell id="4nWX0mUVVbZoidXHL_q9-4" value="" style="endArrow=classic;html=1;rounded=1;exitX=0.5;exitY=1;exitDx=0;exitDy=0;entryX=0.5;entryY=0;entryDx=0;entryDy=0;" edge="1" parent="1" source="eEuLR6X9z9Q5MnXIe958-5" target="eEuLR6X9z9Q5MnXIe958-7">
          <mxGeometry width="50" height="50" relative="1" as="geometry">
            <mxPoint x="260" y="475.5844155844155" as="sourcePoint" />
            <mxPoint x="310" y="424.9350649350649" as="targetPoint" />
            <Array as="points">
              <mxPoint x="420" y="230" />
            </Array>
          </mxGeometry>
        </mxCell>
        <mxCell id="4nWX0mUVVbZoidXHL_q9-5" value="線形変換関数" style="shape=process;whiteSpace=wrap;html=1;backgroundOutline=1;fontSize=14;rounded=1;" vertex="1" parent="1">
          <mxGeometry x="120" y="140" width="120" height="60.78" as="geometry" />
        </mxCell>
        <mxCell id="4nWX0mUVVbZoidXHL_q9-7" value="出力値\((u)\)" style="shape=parallelogram;html=1;strokeWidth=1;perimeter=parallelogramPerimeter;whiteSpace=wrap;rounded=1;arcSize=12;size=0.23;fontSize=14;" vertex="1" parent="1">
          <mxGeometry x="240" y="219.21597402597402" width="100" height="60.77922077922077" as="geometry" />
        </mxCell>
        <mxCell id="4nWX0mUVVbZoidXHL_q9-8" value="" style="endArrow=block;html=1;rounded=1;exitX=1;exitY=0.5;exitDx=0;exitDy=0;dashed=1;entryX=0.5;entryY=0;entryDx=0;entryDy=0;endFill=1;" edge="1" parent="1" source="4nWX0mUVVbZoidXHL_q9-7" target="eEuLR6X9z9Q5MnXIe958-4">
          <mxGeometry width="50" height="50" relative="1" as="geometry">
            <mxPoint x="350" y="269.39" as="sourcePoint" />
            <mxPoint x="350" y="325.39" as="targetPoint" />
            <Array as="points">
              <mxPoint x="350" y="250" />
              <mxPoint x="350" y="410" />
              <mxPoint x="400" y="410" />
            </Array>
          </mxGeometry>
        </mxCell>
        <mxCell id="4nWX0mUVVbZoidXHL_q9-9" value="線形変換関数" style="shape=process;whiteSpace=wrap;html=1;backgroundOutline=1;fontSize=14;rounded=1;" vertex="1" parent="1">
          <mxGeometry x="560" y="140" width="120" height="60.78" as="geometry" />
        </mxCell>
        <mxCell id="4nWX0mUVVbZoidXHL_q9-11" value="" style="endArrow=classic;html=1;rounded=1;exitX=0.5;exitY=0;exitDx=0;exitDy=0;" edge="1" parent="1">
          <mxGeometry width="50" height="50" relative="1" as="geometry">
            <mxPoint x="610.98" y="325" as="sourcePoint" />
            <mxPoint x="609.0143579741043" y="200.39" as="targetPoint" />
          </mxGeometry>
        </mxCell>
        <mxCell id="4nWX0mUVVbZoidXHL_q9-13" value="出力値\((u)\)" style="shape=parallelogram;html=1;strokeWidth=1;perimeter=parallelogramPerimeter;whiteSpace=wrap;rounded=1;arcSize=12;size=0.23;fontSize=14;" vertex="1" parent="1">
          <mxGeometry x="680" y="219.21597402597402" width="100" height="60.77922077922077" as="geometry" />
        </mxCell>
        <mxCell id="4nWX0mUVVbZoidXHL_q9-14" value="" style="endArrow=classic;html=1;rounded=1;exitX=1;exitY=0.5;exitDx=0;exitDy=0;" edge="1" parent="1" source="4nWX0mUVVbZoidXHL_q9-5">
          <mxGeometry width="50" height="50" relative="1" as="geometry">
            <mxPoint x="500" y="290" as="sourcePoint" />
            <mxPoint x="280" y="220" as="targetPoint" />
            <Array as="points">
              <mxPoint x="280" y="170" />
            </Array>
          </mxGeometry>
        </mxCell>
        <mxCell id="4nWX0mUVVbZoidXHL_q9-15" value="" style="endArrow=classic;html=1;rounded=1;exitX=0.61;exitY=-0.008;exitDx=0;exitDy=0;entryX=0;entryY=0.5;entryDx=0;entryDy=0;exitPerimeter=0;" edge="1" parent="1" source="4nWX0mUVVbZoidXHL_q9-7" target="eEuLR6X9z9Q5MnXIe958-5">
          <mxGeometry width="50" height="50" relative="1" as="geometry">
            <mxPoint x="500" y="290" as="sourcePoint" />
            <mxPoint x="550" y="240" as="targetPoint" />
            <Array as="points">
              <mxPoint x="300" y="170" />
            </Array>
          </mxGeometry>
        </mxCell>
        <mxCell id="4nWX0mUVVbZoidXHL_q9-17" value="" style="endArrow=classic;html=1;rounded=1;exitX=1;exitY=0.5;exitDx=0;exitDy=0;" edge="1" parent="1">
          <mxGeometry width="50" height="50" relative="1" as="geometry">
            <mxPoint x="680" y="169.22" as="sourcePoint" />
            <mxPoint x="720" y="219.22" as="targetPoint" />
            <Array as="points">
              <mxPoint x="720" y="169.22" />
            </Array>
          </mxGeometry>
        </mxCell>
        <mxCell id="4nWX0mUVVbZoidXHL_q9-18" value="" style="endArrow=classic;html=1;rounded=1;exitX=0.61;exitY=-0.008;exitDx=0;exitDy=0;entryX=0;entryY=0.5;entryDx=0;entryDy=0;exitPerimeter=0;" edge="1" parent="1">
          <mxGeometry width="50" height="50" relative="1" as="geometry">
            <mxPoint x="741" y="220" as="sourcePoint" />
            <mxPoint x="780" y="171" as="targetPoint" />
            <Array as="points">
              <mxPoint x="740" y="171" />
            </Array>
          </mxGeometry>
        </mxCell>
        <mxCell id="4nWX0mUVVbZoidXHL_q9-19" value="" style="endArrow=classic;html=1;rounded=1;" edge="1" parent="1">
          <mxGeometry width="50" height="50" relative="1" as="geometry">
            <mxPoint x="970" y="639.79" as="sourcePoint" />
            <mxPoint x="1120" y="640.18" as="targetPoint" />
          </mxGeometry>
        </mxCell>
        <mxCell id="4nWX0mUVVbZoidXHL_q9-21" value="" style="endArrow=none;html=1;rounded=1;dashed=1;endFill=0;jumpStyle=arc;startArrow=block;startFill=1;" edge="1" parent="1">
          <mxGeometry width="50" height="50" relative="1" as="geometry">
            <mxPoint x="1120" y="699.18" as="sourcePoint" />
            <mxPoint x="970" y="699" as="targetPoint" />
          </mxGeometry>
        </mxCell>
        <mxCell id="4nWX0mUVVbZoidXHL_q9-23" value="" style="endArrow=none;html=1;rounded=1;dashed=1;startArrow=block;startFill=0;endFill=0;dashPattern=1 1;endSize=6;strokeWidth=2;targetPerimeterSpacing=0;sourcePerimeterSpacing=0;" edge="1" parent="1">
          <mxGeometry width="50" height="50" relative="1" as="geometry">
            <mxPoint x="1120" y="759" as="sourcePoint" />
            <mxPoint x="970" y="759" as="targetPoint" />
          </mxGeometry>
        </mxCell>
        <mxCell id="_fRZqJE1Uo0WPn8z-j4n-1" value="凡例" style="text;html=1;strokeColor=none;fillColor=none;align=left;verticalAlign=middle;whiteSpace=wrap;rounded=1;fontSize=16;" vertex="1" parent="1">
          <mxGeometry x="960" y="570" width="140" height="30" as="geometry" />
        </mxCell>
        <mxCell id="MCuzJTwg4RN5zkWUSIne-2" value="" style="endArrow=none;startArrow=blockThin;html=1;rounded=1;entryDx=0;entryDy=0;exitX=0.5;exitY=0;exitDx=0;exitDy=0;startFill=0;endFill=0;" edge="1" parent="1" source="eEuLR6X9z9Q5MnXIe958-52" target="MCuzJTwg4RN5zkWUSIne-1">
          <mxGeometry width="50" height="50" relative="1" as="geometry">
            <mxPoint x="1030" y="450" as="sourcePoint" />
            <mxPoint x="1030" y="385" as="targetPoint" />
          </mxGeometry>
        </mxCell>
        <mxCell id="MCuzJTwg4RN5zkWUSIne-1" value="" style="shape=waypoint;sketch=0;fillStyle=solid;size=6;pointerEvents=1;points=[];fillColor=none;resizable=0;rotatable=0;perimeter=centerPerimeter;snapToPoint=1;" vertex="1" parent="1">
          <mxGeometry x="1020" y="410" width="20" height="20" as="geometry" />
        </mxCell>
        <mxCell id="MCuzJTwg4RN5zkWUSIne-4" value="" style="endArrow=classic;html=1;rounded=1;exitX=0.5;exitY=1;exitDx=0;exitDy=0;entryX=0.5;entryY=0;entryDx=0;entryDy=0;" edge="1" parent="1">
          <mxGeometry width="50" height="50" relative="1" as="geometry">
            <mxPoint x="840" y="200.39" as="sourcePoint" />
            <mxPoint x="860" y="324.39" as="targetPoint" />
            <Array as="points">
              <mxPoint x="860" y="229.39" />
            </Array>
          </mxGeometry>
        </mxCell>
      </root>
    </mxGraphModel>
  </diagram>
</mxfile>
